<svg height="512pt" viewBox="0 -55 512.00104 512" width="512pt" xmlns="http://www.w3.org/2000/svg"><g fill="#ffee8c"><path d="m111.324219 399.3125c-5.132813 4.097656-12.449219 4.085938-17.53125-.078125-57.261719-46.945313-93.792969-118.222656-93.792969-198.046875 0-79.820312 36.53125-151.101562 93.792969-198.042969 5.082031-4.164062 12.398437-4.175781 17.53125-.078125 6.945312 5.542969 7.003906 16.070313.132812 21.707032-50.988281 41.820312-83.527343 105.316406-83.527343 176.414062s32.539062 134.597656 83.527343 176.417969c6.871094 5.632812 6.8125 16.160156-.132812 21.707031zm0 0"/><path d="m400.671875 399.3125c5.136719 4.105469 12.457031 4.09375 17.539063-.074219 57.257812-46.941406 93.789062-118.230469 93.789062-198.050781s-36.527344-151.105469-93.789062-198.046875c-5.082032-4.167969-12.402344-4.179687-17.539063-.074219-6.9375 5.546875-6.996094 16.066406-.125 21.703125 50.992187 41.820313 83.523437 105.320313 83.523437 176.417969 0 71.101562-32.53125 134.605469-83.523437 176.421875-6.871094 5.632813-6.8125 16.15625.125 21.703125zm0 0"/><path d="m411.0625 201.191406c0-15.230468 27.59375-33.882812 23.839844-47.929687-3.882813-14.535157-37.21875-16.875-44.582032-29.601563-7.46875-12.910156 7.089844-42.929687-3.386718-53.40625-10.476563-10.472656-40.496094 4.085938-53.402344-3.382812-12.726562-7.363282-15.066406-40.699219-29.601562-44.582032-14.046876-3.753906-32.699219 23.839844-47.929688 23.839844s-33.878906-27.597656-47.925781-23.839844c-14.535157 3.882813-16.878907 37.21875-29.601563 44.582032-12.910156 7.46875-42.929687-7.089844-53.40625 3.386718-10.476562 10.476563 4.082032 40.492188-3.386718 53.402344-7.359376 12.726563-40.695313 15.066406-44.582032 29.601563-3.753906 14.046875 23.84375 32.699219 23.84375 47.929687 0 15.230469-27.597656 33.878906-23.84375 47.925782 3.886719 14.535156 37.222656 16.878906 44.585938 29.601562 7.46875 12.910156-7.09375 42.929688 3.382812 53.40625 10.476563 10.476562 40.496094-4.082031 53.40625 3.386719 12.726563 7.359375 15.066406 40.695312 29.601563 44.582031 14.046875 3.753906 32.695312-23.84375 47.925781-23.84375s33.882812 27.597656 47.929688 23.84375c14.535156-3.886719 16.875-37.222656 29.601562-44.585938 12.90625-7.46875 42.929688 7.089844 53.40625-3.382812 10.472656-10.476562-4.085938-40.496094 3.382812-53.40625 7.363282-12.726562 40.699219-15.066406 44.582032-29.601562 3.753906-14.046876-23.839844-32.695313-23.839844-47.925782zm0 0"/></g><path d="m375.707031 201.1875c0 60.464844-44.824219 110.457031-103.066406 118.554688-5.433594.761718-10.988281 1.148437-16.636719 1.148437-66.109375 0-119.710937-53.589844-119.710937-119.703125 0-66.109375 53.601562-119.703125 119.710937-119.703125 5.648438 0 11.203125.386719 16.636719 1.148437 58.242187 8.101563 103.066406 58.09375 103.066406 118.554688zm0 0" fill="#f28f44"/><path d="m375.707031 201.1875c0 60.464844-44.824219 110.457031-103.066406 118.554688-58.238281-8.097657-103.066406-58.089844-103.066406-118.554688 0-60.460938 44.828125-110.453125 103.066406-118.554688 58.242187 8.101563 103.066406 58.09375 103.066406 118.554688zm0 0" fill="#ffd073"/><path d="m222.65625 184.976562c-2.003906 0-4.011719-.765624-5.542969-2.296874-7.078125-7.078126-18.597656-7.078126-25.675781 0-3.0625 3.058593-8.023438 3.058593-11.085938 0-3.058593-3.0625-3.058593-8.023438 0-11.082032 13.191407-13.191406 34.65625-13.191406 47.847657 0 3.058593 3.058594 3.058593 8.023438 0 11.082032-1.53125 1.53125-3.539063 2.296874-5.542969 2.296874zm0 0" fill="#cc9236"/><path d="m326.109375 184.976562c-2.007813 0-4.011719-.765624-5.542969-2.296874-3.429687-3.429688-7.988281-5.320313-12.839844-5.320313-4.847656 0-9.410156 1.890625-12.839843 5.320313-3.058594 3.058593-8.019531 3.058593-11.082031 0-3.058594-3.0625-3.058594-8.023438 0-11.082032 6.390624-6.390625 14.886718-9.910156 23.925781-9.910156 9.035156 0 17.53125 3.519531 23.921875 9.910156 3.058594 3.058594 3.058594 8.023438 0 11.082032-1.53125 1.53125-3.539063 2.296874-5.542969 2.296874zm0 0" fill="#cc9236"/><path d="m256 241.734375c-12.023438 0-24.046875-4.574219-33.203125-13.730469-3.058594-3.0625-3.058594-8.023437 0-11.082031 3.0625-3.058594 8.023437-3.058594 11.085937 0 12.195313 12.199219 32.046876 12.195313 44.238282 0 3.0625-3.058594 8.023437-3.058594 11.085937 0 3.058594 3.058594 3.058594 8.023437 0 11.082031-9.15625 9.15625-21.179687 13.730469-33.207031 13.730469zm0 0" fill="#cc9236"/></svg>